<?xml version="1.0" encoding="UTF-8"?>
<svg width="1306px" height="1322px" viewBox="0 0 1306 1322" version="1.1" xmlns="http://www.w3.org/2000/svg" xmlns:xlink="http://www.w3.org/1999/xlink">
    <!-- Generator: Sketch 50.2 (55047) - http://www.bohemiancoding.com/sketch -->
    <title>Artboard</title>
    <desc>Created with Sketch.</desc>
    <defs></defs>
    <g id="Artboard" stroke="none" stroke-width="1" fill="none" fill-rule="evenodd">
        <g id="beeldmerk" transform="translate(17.000000, 21.000000)" fill-rule="nonzero">
            <polygon id="Path-15" fill="#85B105" points="774.890588 778.626525 985.477443 989.377237 697.476914 1278.49853"></polygon>
            <polygon id="Path-16" fill="#62A613" points="984.87232 989.872559 1275.31385 699.456051 1195.81302 1201.26114"></polygon>
            <polygon id="Path-17" fill="#A6D814" points="774.783922 778.558841 1275.46462 699.391443 985.106164 989.674635"></polygon>
            <polygon id="Path-18" fill="#417505" points="697.3323 1278.67389 984.821038 989.676686 1195.77507 1201.22525"></polygon>
            <polygon id="Path-15" fill="#85B105" transform="translate(434.836660, 1028.562527) scale(-1, 1) translate(-434.836660, -1028.562527) " points="368.250069 778.626525 578.836924 989.377237 290.836395 1278.49853"></polygon>
            <polygon id="Path-16" fill="#62A613" transform="translate(146.220753, 950.358595) scale(-1, 1) translate(-146.220753, -950.358595) " points="0.999987 989.872559 291.44152 699.456051 211.940685 1201.26114"></polygon>
            <polygon id="Path-17" fill="#A6D814" transform="translate(251.189567, 844.533039) scale(-1, 1) translate(-251.189567, -844.533039) " points="0.849218 778.558841 501.529916 699.391443 211.17146 989.674635"></polygon>
            <polygon id="Path-18" fill="#417505" transform="translate(329.760154, 1134.175288) scale(-1, 1) translate(-329.760154, -1134.175288) " points="80.538769 1278.67389 368.027507 989.676686 578.981538 1201.22525"></polygon>
            <polygon id="Path-15" fill="#85B105" transform="translate(841.477179, 250.769439) scale(-1, 1) rotate(-180.000000) translate(-841.477179, -250.769439) " points="774.890588 0.833439 985.477443 211.584151 697.476914 500.705439"></polygon>
            <polygon id="Path-16" fill="#62A613" transform="translate(1130.093085, 328.973369) scale(-1, 1) rotate(-180.000000) translate(-1130.093085, -328.973369) " points="984.87232 368.487333 1275.31385 78.070825 1195.81302 579.875913"></polygon>
            <polygon id="Path-17" fill="#A6D814" transform="translate(1025.124271, 434.798924) scale(-1, 1) rotate(-180.000000) translate(-1025.124271, -434.798924) " points="774.783922 368.824726 1275.46462 289.657328 985.106164 579.94052"></polygon>
            <polygon id="Path-18" fill="#417505" transform="translate(946.553685, 145.156677) scale(-1, 1) rotate(-180.000000) translate(-946.553685, -145.156677) " points="697.3323 289.655278 984.821038 0.658077 1195.77507 212.206637"></polygon>
            <polygon id="Path-15" fill="#85B105" transform="translate(435.836660, 251.769439) rotate(180.000000) translate(-435.836660, -251.769439) " points="369.250069 1.833439 579.836924 212.584151 291.836395 501.705439"></polygon>
            <polygon id="Path-16" fill="#62A613" transform="translate(147.220753, 329.973369) rotate(180.000000) translate(-147.220753, -329.973369) " points="1.999987 369.487333 292.44152 79.070825 212.940685 580.875913"></polygon>
            <polygon id="Path-17" fill="#A6D814" transform="translate(252.189567, 435.798924) rotate(180.000000) translate(-252.189567, -435.798924) " points="1.849218 369.824726 502.529916 290.657328 212.17146 580.94052"></polygon>
            <polygon id="Path-18" fill="#417505" transform="translate(330.760154, 146.156677) rotate(180.000000) translate(-330.760154, -146.156677) " points="81.538769 290.655278 369.027507 1.658077 579.981538 213.206637"></polygon>
        </g>
    </g>
</svg>