<?xml version="1.0" encoding="UTF-8"?>
<svg width="20px" height="20px" viewBox="0 0 20 20" version="1.1" xmlns="http://www.w3.org/2000/svg" xmlns:xlink="http://www.w3.org/1999/xlink">
    <!-- Generator: Sketch 50.2 (55047) - http://www.bohemiancoding.com/sketch -->
    <title>first</title>
    <desc>Created with Sketch.</desc>
    <defs></defs>
    <g id="Page-1" stroke="none" stroke-width="1" fill="none" fill-rule="evenodd">
        <g id="Artboard" transform="translate(-397.000000, -122.000000)" fill-rule="nonzero">
            <g id="By-Revenue-(in-EUR)-Copy" transform="translate(388.000000, 86.000000)">
                <g id="gold-medal" transform="translate(9.000000, 36.000000)">
                    <path d="M9.70505051,19.9757576 C4.37171717,19.9757576 0.00808080808,15.6121212 0.00808080808,10.2787879 C0.00808080808,4.94545455 4.37171717,0.581818182 9.70505051,0.581818182 C15.0383838,0.581818182 19.4020202,4.94545455 19.4020202,10.2787879 C19.4020202,15.6121212 15.0383838,19.9757576 9.70505051,19.9757576 Z" id="Shape" fill="#DBAB56"></path>
                    <circle id="Oval" fill="#EFB30C" cx="9.70505051" cy="9.6969697" r="9.08282828"></circle>
                    <g id="Group" transform="translate(0.606061, 0.606061)" fill="#E5A300">
                        <path d="M1.08282828,10.189899 C1.08282828,5.17979798 5.15555556,1.10707071 10.1656566,1.10707071 C12.3959596,1.10707071 14.4323232,1.91515152 16.0161616,3.24040404 C14.3676768,1.26868687 11.8787879,0.00808080808 9.0989899,0.00808080808 C4.08888889,0.00808080808 0.0161616162,4.08080808 0.0161616162,9.09090909 C0.0161616162,11.8707071 1.27676768,14.359596 3.24848485,16.040404 C1.89090909,14.4565657 1.08282828,12.420202 1.08282828,10.189899 Z" id="Shape"></path>
                        <path d="M15.5313131,2.69090909 C19.0868687,6.24646465 19.0868687,12 15.5313131,15.5555556 C11.9757576,19.1111111 6.22222222,19.1111111 2.66666667,15.5555556" id="Shape"></path>
                    </g>
                    <path d="M9.70505051,19.3939394 C4.37171717,19.3939394 0.00808080808,15.030303 0.00808080808,9.6969697 C0.00808080808,4.36363636 4.37171717,0 9.70505051,0 C15.0383838,0 19.4020202,4.36363636 19.4020202,9.6969697 C19.4020202,15.030303 15.0383838,19.3939394 9.70505051,19.3939394 Z M9.70505051,1.22828283 C5.01818182,1.22828283 1.23636364,5.04242424 1.23636364,9.6969697 C1.23636364,14.3838384 5.05050505,18.1656566 9.70505051,18.1656566 C14.359596,18.1656566 18.1737374,14.3515152 18.1737374,9.6969697 C18.1737374,5.04242424 14.3919192,1.22828283 9.70505051,1.22828283 Z" id="Shape" fill="#F7D27F"></path>
                    <g id="Group" transform="translate(7.272727, 5.858586)" fill="#FFE0A1">
                        <path d="M3.20808081,0.0242424242 L2.33535354,0.0242424242 C2.23838384,0.0242424242 2.14141414,0.0565656566 2.04444444,0.0888888889 L0.363636364,0.993939394 C0.105050505,1.12323232 -0.0242424242,1.41414141 0.0404040404,1.70505051 L0.234343434,2.51313131 C0.266666667,2.70707071 0.395959596,2.86868687 0.58989899,2.93333333 C0.751515152,2.9979798 0.977777778,2.9979798 1.13939394,2.9010101 L1.59191919,2.67474747 L1.59191919,8.36363636 C1.59191919,8.71919192 1.88282828,8.97777778 2.20606061,8.97777778 L3.20808081,8.97777778 C3.56363636,8.97777778 3.82222222,8.68686869 3.82222222,8.36363636 L3.82222222,0.638383838 C3.82222222,0.315151515 3.53131313,0.0242424242 3.20808081,0.0242424242 Z" id="Shape"></path>
                    </g>
                    <path d="M8.83232323,10.569697 L8.83232323,14.189899 C8.83232323,14.5454545 9.12323232,14.8040404 9.44646465,14.8040404 L10.4484848,14.8040404 C10.8040404,14.8040404 11.0626263,14.5131313 11.0626263,14.189899 L11.0626263,8.30707071 L8.83232323,10.569697 Z" id="Shape" fill="#F7D27F"></path>
                </g>
            </g>
        </g>
    </g>
</svg>