<?xml version="1.0" encoding="UTF-8"?>
<svg width="20px" height="20px" viewBox="0 0 20 20" version="1.1" xmlns="http://www.w3.org/2000/svg" xmlns:xlink="http://www.w3.org/1999/xlink">
    <!-- Generator: Sketch 50.2 (55047) - http://www.bohemiancoding.com/sketch -->
    <title>second</title>
    <desc>Created with Sketch.</desc>
    <defs></defs>
    <g id="Page-1" stroke="none" stroke-width="1" fill="none" fill-rule="evenodd">
        <g id="Artboard" transform="translate(-397.000000, -157.000000)" fill-rule="nonzero">
            <g id="By-Revenue-(in-EUR)-Copy" transform="translate(388.000000, 86.000000)">
                <g id="second" transform="translate(9.000000, 71.000000)">
                    <path d="M9.70505051,19.9757576 C4.37171717,19.9757576 0.00808080808,15.6121212 0.00808080808,10.2787879 C0.00808080808,4.94545455 4.37171717,0.581818182 9.70505051,0.581818182 C15.0383838,0.581818182 19.4020202,4.94545455 19.4020202,10.2787879 C19.4020202,15.6121212 15.0383838,19.9757576 9.70505051,19.9757576 Z" id="Shape" fill="#90AEAF"></path>
                    <circle id="Oval" fill="#7D979E" cx="9.70505051" cy="9.6969697" r="9.08282828"></circle>
                    <g id="Group" transform="translate(0.606061, 0.606061)" fill="#688389">
                        <path d="M1.08282828,10.189899 C1.08282828,5.17979798 5.15555556,1.10707071 10.1656566,1.10707071 C12.3959596,1.10707071 14.4323232,1.91515152 16.0161616,3.24040404 C14.3676768,1.26868687 11.8787879,0.00808080808 9.0989899,0.00808080808 C4.08888889,0.00808080808 0.0161616162,4.08080808 0.0161616162,9.09090909 C0.0161616162,11.8707071 1.27676768,14.359596 3.24848485,16.040404 C1.89090909,14.4565657 1.08282828,12.420202 1.08282828,10.189899 Z" id="Shape"></path>
                        <path d="M15.5313131,2.69090909 C19.0868687,6.24646465 19.0868687,12 15.5313131,15.5555556 C11.9757576,19.1111111 6.22222222,19.1111111 2.66666667,15.5555556" id="Shape"></path>
                    </g>
                    <path d="M9.70505051,19.3939394 C4.37171717,19.3939394 0.00808080808,15.030303 0.00808080808,9.6969697 C0.00808080808,4.36363636 4.37171717,0 9.70505051,0 C15.0383838,0 19.4020202,4.36363636 19.4020202,9.6969697 C19.4020202,15.030303 15.0383838,19.3939394 9.70505051,19.3939394 Z M9.70505051,1.22828283 C5.01818182,1.22828283 1.23636364,5.04242424 1.23636364,9.6969697 C1.23636364,14.3838384 5.05050505,18.1656566 9.70505051,18.1656566 C14.359596,18.1656566 18.1737374,14.3515152 18.1737374,9.6969697 C18.1737374,5.04242424 14.3919192,1.22828283 9.70505051,1.22828283 Z" id="Shape" fill="#B6CBCE"></path>
                    <g id="Group" transform="translate(6.585859, 5.737374)" fill="#C7E0E2">
                        <path d="M5.54343434,6.9979798 L3.63636364,6.9979798 C4.99393939,5.64040404 5.9959596,4.41212121 5.9959596,2.89292929 C5.9959596,1.5030303 5.05858586,0.0161616162 3.02222222,0.0161616162 C2.05252525,0.0161616162 1.14747475,0.339393939 0.436363636,0.953535354 C0.21010101,1.14747475 0.145454545,1.43838384 0.274747475,1.6969697 L0.597979798,2.44040404 C0.662626263,2.6020202 0.824242424,2.76363636 1.01818182,2.7959596 C1.21212121,2.82828283 1.40606061,2.7959596 1.56767677,2.66666667 C1.79393939,2.47272727 2.24646465,2.14949495 2.7959596,2.14949495 C3.44242424,2.14949495 3.7010101,2.40808081 3.7010101,3.02222222 C3.7010101,3.92727273 2.89292929,4.83232323 1.01818182,6.61010101 L0.21010101,7.41818182 C0.0808080808,7.54747475 0.0161616162,7.70909091 0.0161616162,7.87070707 L0.0161616162,8.51717172 C0.0161616162,8.87272727 0.307070707,9.13131313 0.63030303,9.13131313 L5.54343434,9.13131313 C5.8989899,9.13131313 6.15757576,8.84040404 6.15757576,8.51717172 L6.15757576,7.64444444 C6.15757576,7.25656566 5.86666667,6.9979798 5.54343434,6.9979798 Z" id="Shape"></path>
                    </g>
                    <path d="M7.57171717,12.3151515 L6.76363636,13.1232323 C6.63434343,13.2525253 6.56969697,13.4141414 6.56969697,13.5757576 L6.56969697,14.2222222 C6.56969697,14.5777778 6.86060606,14.8363636 7.18383838,14.8363636 L12.0969697,14.8363636 C12.4525253,14.8363636 12.7111111,14.5454545 12.7111111,14.2222222 L12.7111111,13.3494949 C12.7111111,12.9939394 12.420202,12.7353535 12.0969697,12.7353535 L10.189899,12.7353535 C11.5474747,11.3777778 12.5494949,10.1494949 12.5494949,8.63030303 C12.5494949,8.14545455 12.420202,7.66060606 12.1939394,7.24040404 L10.1575758,9.27676768 C9.93131313,9.98787879 9.12323232,10.8606061 7.57171717,12.3151515 Z" id="Shape" fill="#B6CBCE"></path>
                </g>
            </g>
        </g>
    </g>
</svg>