<?xml version="1.0" encoding="UTF-8"?>
<svg width="20px" height="20px" viewBox="0 0 20 20" version="1.1" xmlns="http://www.w3.org/2000/svg" xmlns:xlink="http://www.w3.org/1999/xlink">
    <!-- Generator: Sketch 50.2 (55047) - http://www.bohemiancoding.com/sketch -->
    <title>third</title>
    <desc>Created with Sketch.</desc>
    <defs></defs>
    <g id="Page-1" stroke="none" stroke-width="1" fill="none" fill-rule="evenodd">
        <g id="Artboard" transform="translate(-397.000000, -191.000000)" fill-rule="nonzero">
            <g id="By-Revenue-(in-EUR)-Copy" transform="translate(388.000000, 86.000000)">
                <g id="third" transform="translate(9.000000, 105.000000)">
                    <path d="M9.70505051,19.9757576 C4.37171717,19.9757576 0.00808080808,15.6121212 0.00808080808,10.2787879 C0.00808080808,4.94545455 4.37171717,0.581818182 9.70505051,0.581818182 C15.0383838,0.581818182 19.4020202,4.94545455 19.4020202,10.2787879 C19.4020202,15.6121212 15.0383838,19.9757576 9.70505051,19.9757576 Z" id="Shape" fill="#D89E77"></path>
                    <circle id="Oval" fill="#D88B56" cx="9.70505051" cy="9.6969697" r="9.08282828"></circle>
                    <g id="Group" transform="translate(0.606061, 0.606061)" fill="#CC7E48">
                        <path d="M1.08282828,10.189899 C1.08282828,5.17979798 5.15555556,1.10707071 10.1656566,1.10707071 C12.3959596,1.10707071 14.4323232,1.91515152 16.0161616,3.24040404 C14.3676768,1.26868687 11.8787879,0.00808080808 9.0989899,0.00808080808 C4.08888889,0.00808080808 0.0161616162,4.08080808 0.0161616162,9.09090909 C0.0161616162,11.8707071 1.27676768,14.359596 3.24848485,16.040404 C1.89090909,14.4565657 1.08282828,12.420202 1.08282828,10.189899 Z" id="Shape"></path>
                        <path d="M15.5313131,2.69090909 C19.0868687,6.24646465 19.0868687,12 15.5313131,15.5555556 C11.9757576,19.1111111 6.22222222,19.1111111 2.66666667,15.5555556" id="Shape"></path>
                    </g>
                    <path d="M9.70505051,19.3939394 C4.37171717,19.3939394 0.00808080808,15.030303 0.00808080808,9.6969697 C0.00808080808,4.36363636 4.37171717,0 9.70505051,0 C15.0383838,0 19.4020202,4.36363636 19.4020202,9.6969697 C19.4020202,15.030303 15.0383838,19.3939394 9.70505051,19.3939394 Z M9.70505051,1.22828283 C5.01818182,1.22828283 1.23636364,5.04242424 1.23636364,9.6969697 C1.23636364,14.3838384 5.05050505,18.1656566 9.70505051,18.1656566 C14.359596,18.1656566 18.1737374,14.3515152 18.1737374,9.6969697 C18.1737374,5.04242424 14.3919192,1.22828283 9.70505051,1.22828283 Z" id="Shape" fill="#F7C6A4"></path>
                    <g id="Group" transform="translate(6.424242, 5.737374)" fill="#FFDCC5">
                        <path d="M5.12323232,4.21818182 C5.60808081,3.76565657 5.86666667,3.15151515 5.86666667,2.47272727 C5.86666667,1.27676768 4.99393939,0.0161616162 3.05454545,0.0161616162 C2.02020202,0.0161616162 1.11515152,0.404040404 0.662626263,0.727272727 C0.436363636,0.888888889 0.339393939,1.17979798 0.436363636,1.43838384 L0.694949495,2.18181818 C0.75959596,2.37575758 0.921212121,2.50505051 1.08282828,2.56969697 C1.27676768,2.63434343 1.47070707,2.6020202 1.63232323,2.47272727 C1.89090909,2.27878788 2.37575758,2.08484848 2.7959596,2.08484848 C3.50707071,2.08484848 3.50707071,2.47272727 3.50707071,2.63434343 C3.50707071,3.18383838 2.6989899,3.31313131 2.40808081,3.31313131 L1.82626263,3.31313131 C1.47070707,3.31313131 1.21212121,3.6040404 1.21212121,3.92727273 L1.21212121,4.7030303 C1.21212121,5.05858586 1.5030303,5.31717172 1.82626263,5.31717172 L2.40808081,5.31717172 C2.73131313,5.31717172 3.76565657,5.38181818 3.76565657,6.25454545 C3.76565657,6.35151515 3.76565657,6.61010101 3.53939394,6.83636364 C3.31313131,7.06262626 2.92525253,7.12727273 2.63434343,7.12727273 C2.08484848,7.12727273 1.5030303,6.9010101 1.27676768,6.73939394 C1.11515152,6.64242424 0.921212121,6.61010101 0.727272727,6.67474747 C0.533333333,6.73939394 0.404040404,6.86868687 0.339393939,7.06262626 L0.0484848485,7.87070707 C-0.0484848485,8.12929293 0.0484848485,8.45252525 0.307070707,8.61414141 C0.75959596,8.90505051 1.63232323,9.22828283 2.63434343,9.22828283 C4.99393939,9.22828283 6.06060606,7.70909091 6.06060606,6.28686869 C6.15757576,5.44646465 5.76969697,4.7030303 5.12323232,4.21818182 Z" id="Shape"></path>
                    </g>
                    <path d="M8.31515152,11.0868687 L8.8969697,11.0868687 C9.22020202,11.0868687 10.2545455,11.1515152 10.2545455,12.0242424 C10.2545455,12.1212121 10.2545455,12.379798 10.0282828,12.6060606 C9.8020202,12.8323232 9.41414141,12.8969697 9.12323232,12.8969697 C8.57373737,12.8969697 7.99191919,12.6707071 7.76565657,12.5090909 C7.6040404,12.4121212 7.41010101,12.379798 7.21616162,12.4444444 C7.02222222,12.5090909 6.89292929,12.6383838 6.82828283,12.8323232 L6.53737374,13.640404 C6.44040404,13.8989899 6.53737374,14.2222222 6.7959596,14.3838384 C7.24848485,14.6747475 8.12121212,14.9979798 9.12323232,14.9979798 C11.4828283,14.9979798 12.5494949,13.4787879 12.5494949,12.0565657 C12.5494949,11.2161616 12.1616162,10.4727273 11.5151515,9.98787879 C12,9.53535354 12.2585859,8.92121212 12.2585859,8.24242424 C12.2585859,7.91919192 12.1939394,7.62828283 12.0646465,7.33737374 L8.31515152,11.0868687 Z" id="Shape" fill="#F7C6A4"></path>
                </g>
            </g>
        </g>
    </g>
</svg>